<svg xmlns="http://www.w3.org/2000/svg" viewBox="-30 -30 430 1060" width="430" height="1060"><rect x="0" y="0" width="300" height="1000" fill="none" stroke="#999" stroke-width="7"/><path d="M300,0 L370,40 L370,960 L300,1000 Z" fill="none" stroke="#999" stroke-width="7"/><path d="M322,12.571428571428571 L322,987.4285714285714" stroke="#595959" stroke-width="5"/><path d="M345,25.714285714285715 L345,974.2857142857143" stroke="#595959" stroke-width="5"/><path d="M368,38.857142857142854 L368,961.1428571428571" stroke="#595959" stroke-width="5"/><rect x="14" y="18" width="272" height="230" fill="none" stroke="#999" stroke-width="6"/><path d="M34,52 L266,133.0 L34,214 Z" fill="#fff"/><rect x="14" y="263" width="272" height="230" fill="none" stroke="#999" stroke-width="6"/><path d="M266,297 L34,378.0 L266,459 Z" fill="#fff"/><rect x="14" y="508" width="272" height="230" fill="none" stroke="#999" stroke-width="6"/><path d="M34,542 L266,623.0 L34,704 Z" fill="#fff"/><rect x="14" y="753" width="272" height="230" fill="none" stroke="#999" stroke-width="6"/><path d="M266,787 L34,868.0 L266,949 Z" fill="#fff"/></svg>